<svg version="1.1" id="Layer_1" xmlns="http://www.w3.org/2000/svg" xmlns:xlink="http://www.w3.org/1999/xlink" x="0px" y="0px"
	 width="100%" viewBox="0 0 512 512" enable-background="new 0 0 512 512" xml:space="preserve">
<path fill="#000000" opacity="1.000000" stroke="none" 
	d="
M284.000000,513.000000 
	C189.356308,513.000000 95.212616,513.000000 1.034460,513.000000 
	C1.034460,342.397949 1.034460,171.795883 1.034460,1.096914 
	C171.560379,1.096914 342.120819,1.096914 512.840637,1.096914 
	C512.840637,171.666550 512.840637,342.333252 512.840637,513.000000 
	C436.795868,513.000000 360.647919,513.000000 284.000000,513.000000 
M382.998566,325.500000 
	C382.998566,316.852264 382.998566,308.204529 382.998566,299.637604 
	C379.646759,298.646973 376.318451,298.224396 373.554810,296.746124 
	C363.381195,291.304413 353.355286,285.581604 343.347534,279.836121 
	C329.662842,271.979706 316.052277,263.994263 302.397430,256.085693 
	C288.327271,247.936554 274.203156,239.879257 260.200134,231.616592 
	C257.742340,230.166336 256.055450,230.298370 253.647293,231.746933 
	C242.210907,238.626175 230.642120,245.286209 219.093155,251.977142 
	C204.457886,260.456116 189.965668,269.202484 175.097641,277.253418 
	C160.624207,285.090729 147.532532,295.676819 131.257782,299.642273 
	C131.257782,342.407349 131.257782,384.999634 131.257782,427.702118 
	C157.235489,427.702118 182.954239,427.702118 209.000458,427.702118 
	C209.000458,425.602417 209.000458,423.798187 209.000458,421.993927 
	C209.000412,396.834381 209.371567,371.666809 208.830612,346.518921 
	C208.590317,335.347931 216.756790,329.222931 226.381622,329.088165 
	C246.871811,328.801239 267.374603,328.714142 287.860413,329.128693 
	C297.273651,329.319183 305.218475,334.375977 305.082062,346.799011 
	C304.805817,371.955505 304.999573,397.117218 304.999573,422.276764 
	C304.999573,424.055298 304.999573,425.833801 304.999573,427.694519 
	C331.248169,427.694519 356.966827,427.694519 382.998566,427.694519 
	C382.998566,393.759552 382.998566,360.129791 382.998566,325.500000 
M165.013596,204.493332 
	C186.221024,192.282944 207.395233,180.014282 228.656662,167.898666 
	C234.808289,164.393204 240.919678,160.448792 247.561005,158.251801 
	C259.453857,154.317581 270.284241,158.313583 280.422974,164.867661 
	C285.147461,167.921768 290.173798,170.508896 295.855957,173.761398 
	C295.579712,169.365158 297.690857,165.836166 292.953156,164.086792 
	C287.587921,162.105713 282.072571,160.256973 277.128357,157.457336 
	C256.139282,145.572357 235.343811,133.345642 214.465561,121.264633 
	C201.173233,113.573143 187.864670,105.909698 174.551758,98.253899 
	C171.758072,96.647354 169.452820,96.035385 166.031387,98.154381 
	C154.222900,105.467735 141.986282,112.087624 129.946121,119.029510 
	C111.325844,129.765259 92.800591,140.667984 74.097076,151.256180 
	C66.065964,155.802628 57.882610,160.204483 49.379547,163.735580 
	C45.649181,165.284698 43.870293,166.294815 43.891338,170.694824 
	C44.078537,209.836304 43.996704,248.979050 44.011848,288.121429 
	C44.012535,289.896759 44.182243,291.672058 44.275284,293.487488 
	C65.710480,293.487488 86.674469,293.487488 108.453117,293.487488 
	C106.998169,291.810089 106.241608,290.725555 105.283806,289.864990 
	C86.441978,272.936127 93.014580,244.904739 114.091125,233.804794 
	C131.190643,224.799393 147.643707,214.566498 165.013596,204.493332 
M413.523468,245.126312 
	C423.437500,260.379395 422.094147,278.686340 407.381500,291.196533 
	C406.842804,291.654572 406.608215,292.470184 405.969971,293.570892 
	C427.556458,293.570892 448.547150,293.570892 469.999969,293.570892 
	C469.999969,291.170593 469.999939,289.199249 469.999939,287.227905 
	C469.999939,248.750580 469.894928,210.272629 470.126129,171.796692 
	C470.156830,166.694244 468.842072,164.203918 463.665863,163.674133 
	C461.618805,163.464630 459.582764,162.322342 457.718719,161.286285 
	C447.163147,155.419281 436.605804,149.551651 426.152039,143.506165 
	C399.816040,128.275940 373.548828,112.926666 347.192047,97.732658 
	C345.836304,96.951103 343.523682,96.431023 342.300415,97.053802 
	C336.161194,100.179436 330.236389,103.726212 323.939087,107.293358 
	C331.282013,116.915039 334.927979,126.965607 332.062775,138.721298 
	C329.213196,150.412796 321.402039,157.707016 311.001923,163.069656 
	C311.001923,168.230240 311.175476,173.394150 310.938965,178.539200 
	C310.789246,181.795517 311.872803,183.570999 314.878632,185.077225 
	C320.935974,188.112564 326.719696,191.696762 332.597565,195.086975 
	C350.625702,205.485138 368.710754,215.787048 386.640472,226.352432 
	C395.860718,231.785614 405.979919,235.993713 413.523468,245.126312 
M363.627441,229.935532 
	C359.713989,227.617233 355.816040,225.272308 351.884247,222.985535 
	C339.653259,215.871918 327.428833,208.746719 315.165863,201.688553 
	C298.828705,192.285416 282.508606,182.850296 266.065491,173.635284 
	C261.950256,171.329056 257.348755,169.684540 252.575455,172.010284 
	C246.477921,174.981323 240.343597,177.911270 234.440689,181.241058 
	C215.731430,191.794739 197.079681,202.452255 178.486282,213.208893 
	C158.204025,224.942520 138.043930,236.887268 117.763359,248.623840 
	C110.334053,252.923248 106.788437,264.356506 109.999672,272.296967 
	C114.226616,282.748993 127.336021,288.045166 137.990341,281.982544 
	C146.614334,277.075226 155.152100,272.016571 163.743317,267.051331 
	C193.710007,249.732239 223.654663,232.374283 253.728653,215.243454 
	C255.445328,214.265594 258.713409,214.347260 260.460754,215.340668 
	C281.667206,227.397156 302.723389,239.717957 323.819061,251.969391 
	C338.160675,260.298431 352.455902,268.708893 366.864685,276.920074 
	C374.078339,281.030914 380.924011,286.269531 390.258728,284.073853 
	C396.751251,282.546692 403.659241,276.296021 404.969940,269.774841 
	C406.563171,261.847778 402.873566,252.448502 396.848450,248.955505 
	C386.012085,242.673294 375.192413,236.362305 363.627441,229.935532 
M316.185608,139.462708 
	C320.628357,129.112045 317.601501,119.136810 308.742004,113.973038 
	C292.047363,104.242516 275.336792,94.539291 258.619781,84.847267 
	C233.010864,69.999969 207.429214,55.104923 181.748810,40.382195 
	C175.292145,36.680557 168.409027,35.419724 161.396530,39.281113 
	C154.587952,43.030220 147.706406,46.652882 140.979279,50.542702 
	C120.653023,62.295925 100.394814,74.166733 80.093529,85.963219 
	C63.788700,95.437485 47.361691,104.706268 31.179384,114.384720 
	C21.913607,119.926476 19.080467,132.186508 24.478598,140.875534 
	C30.333456,150.299728 42.721615,152.973129 52.378235,147.120972 
	C59.869995,142.580795 67.541054,138.336639 75.128860,133.954742 
	C89.733208,125.520844 104.332771,117.078690 118.938515,108.647247 
	C134.843536,99.465782 150.755569,90.296486 166.658783,81.111908 
	C169.278549,79.598907 171.381989,79.644058 174.275681,81.399658 
	C187.271896,89.284401 200.527969,96.741798 213.710587,104.318062 
	C238.662888,118.658531 263.662842,132.916443 288.572815,147.329956 
	C298.477722,153.061157 310.401855,150.085617 316.185608,139.462708 
M134.500000,443.000000 
	C125.740631,443.000000 116.981262,443.000000 108.391724,443.000000 
	C108.391724,454.750580 108.391724,465.810028 108.391724,476.745178 
	C207.716949,476.745178 306.650787,476.745178 405.696655,476.745178 
	C405.696655,465.430695 405.696655,454.373901 405.696655,443.000000 
	C315.429443,443.000000 225.464722,443.000000 134.500000,443.000000 
M485.464020,115.999573 
	C464.631897,103.822868 443.832642,91.589508 422.958496,79.485283 
	C401.785736,67.207932 380.453125,55.204079 359.365936,42.782608 
	C350.592621,37.614643 342.020081,34.599895 332.372620,40.235718 
	C317.668396,48.825600 302.910950,57.324333 288.206482,65.913773 
	C282.912689,69.006081 277.706726,72.248680 271.813843,75.814018 
	C284.476257,83.208809 296.255402,90.201714 308.197693,96.903923 
	C309.544342,97.659691 312.146637,97.369530 313.598236,96.553383 
	C322.963867,91.287712 332.124542,85.657547 341.489899,80.391327 
	C342.666229,79.729866 344.949463,79.970184 346.210846,80.687584 
	C363.448914,90.491814 380.583801,100.477264 397.771362,110.370689 
	C418.979187,122.578247 440.324921,134.551682 461.378448,147.019089 
	C469.591858,151.882889 481.315155,150.859604 487.404480,143.980606 
	C494.371460,136.110123 493.515961,124.140778 485.464020,115.999573 
M46.500008,343.000305 
	C69.880569,343.000305 93.261131,343.000305 116.643730,343.000305 
	C116.643730,330.930267 116.643730,319.705536 116.643730,308.615143 
	C115.976768,308.362122 115.676018,308.148468 115.374863,308.147919 
	C85.093567,308.093079 54.812176,308.078583 24.531067,307.977173 
	C21.505934,307.967041 20.957474,309.478607 20.977245,312.023987 
	C21.047035,321.008728 21.087482,329.995575 20.958090,338.979004 
	C20.914478,342.006897 22.020842,343.102325 25.034426,343.039307 
	C31.853579,342.896698 38.677834,342.998138 46.500008,343.000305 
M450.500000,343.000305 
	C463.146027,342.999329 475.793121,342.905945 488.437317,343.058319 
	C491.869873,343.099670 493.148926,342.039307 493.063599,338.508240 
	C492.862732,330.193390 492.773376,321.861542 493.094696,313.554199 
	C493.263947,309.179108 491.940155,307.872894 487.501099,307.902740 
	C459.048889,308.093964 430.594727,307.995331 402.141235,308.013824 
	C400.545807,308.014862 398.950470,308.209686 397.344055,308.315033 
	C397.344055,320.045105 397.344055,331.269592 397.344055,343.000305 
	C414.964539,343.000305 432.232269,343.000305 450.500000,343.000305 
z"/>
<path fill="#10A7E5" opacity="1.000000" stroke="none" 
	d="
M382.998566,326.000000 
	C382.998566,360.129791 382.998566,393.759552 382.998566,427.694519 
	C356.966827,427.694519 331.248169,427.694519 304.999573,427.694519 
	C304.999573,425.833801 304.999573,424.055298 304.999573,422.276764 
	C304.999573,397.117218 304.805817,371.955505 305.082062,346.799011 
	C305.218475,334.375977 297.273651,329.319183 287.860413,329.128693 
	C267.374603,328.714142 246.871811,328.801239 226.381622,329.088165 
	C216.756790,329.222931 208.590317,335.347931 208.830612,346.518921 
	C209.371567,371.666809 209.000412,396.834381 209.000458,421.993927 
	C209.000458,423.798187 209.000458,425.602417 209.000458,427.702118 
	C182.954239,427.702118 157.235489,427.702118 131.257782,427.702118 
	C131.257782,384.999634 131.257782,342.407349 131.257782,299.642273 
	C147.532532,295.676819 160.624207,285.090729 175.097641,277.253418 
	C189.965668,269.202484 204.457886,260.456116 219.093155,251.977142 
	C230.642120,245.286209 242.210907,238.626175 253.647293,231.746933 
	C256.055450,230.298370 257.742340,230.166336 260.200134,231.616592 
	C274.203156,239.879257 288.327271,247.936554 302.397430,256.085693 
	C316.052277,263.994263 329.662842,271.979706 343.347534,279.836121 
	C353.355286,285.581604 363.381195,291.304413 373.554810,296.746124 
	C376.318451,298.224396 379.646759,298.646973 382.998566,299.637604 
	C382.998566,308.204529 382.998566,316.852264 382.998566,326.000000 
z"/>
<path fill="#00467C" opacity="1.000000" stroke="none" 
	d="
M164.698547,204.685669 
	C147.643707,214.566498 131.190643,224.799393 114.091125,233.804794 
	C93.014580,244.904739 86.441978,272.936127 105.283806,289.864990 
	C106.241608,290.725555 106.998169,291.810089 108.453117,293.487488 
	C86.674469,293.487488 65.710480,293.487488 44.275284,293.487488 
	C44.182243,291.672058 44.012535,289.896759 44.011848,288.121429 
	C43.996704,248.979050 44.078537,209.836304 43.891338,170.694824 
	C43.870293,166.294815 45.649181,165.284698 49.379547,163.735580 
	C57.882610,160.204483 66.065964,155.802628 74.097076,151.256180 
	C92.800591,140.667984 111.325844,129.765259 129.946121,119.029510 
	C141.986282,112.087624 154.222900,105.467735 166.031387,98.154381 
	C169.452820,96.035385 171.758072,96.647354 174.551758,98.253899 
	C187.864670,105.909698 201.173233,113.573143 214.465561,121.264633 
	C235.343811,133.345642 256.139282,145.572357 277.128357,157.457336 
	C282.072571,160.256973 287.587921,162.105713 292.953156,164.086792 
	C297.690857,165.836166 295.579712,169.365158 295.855957,173.761398 
	C290.173798,170.508896 285.147461,167.921768 280.422974,164.867661 
	C270.284241,158.313583 259.453857,154.317581 247.561005,158.251801 
	C240.919678,160.448792 234.808289,164.393204 228.656662,167.898666 
	C207.395233,180.014282 186.221024,192.282944 164.698547,204.685669 
z"/>
<path fill="#00467C" opacity="1.000000" stroke="none" 
	d="
M413.281433,244.855133 
	C405.979919,235.993713 395.860718,231.785614 386.640472,226.352432 
	C368.710754,215.787048 350.625702,205.485138 332.597565,195.086975 
	C326.719696,191.696762 320.935974,188.112564 314.878632,185.077225 
	C311.872803,183.570999 310.789246,181.795517 310.938965,178.539200 
	C311.175476,173.394150 311.001923,168.230240 311.001923,163.069656 
	C321.402039,157.707016 329.213196,150.412796 332.062775,138.721298 
	C334.927979,126.965607 331.282013,116.915039 323.939087,107.293358 
	C330.236389,103.726212 336.161194,100.179436 342.300415,97.053802 
	C343.523682,96.431023 345.836304,96.951103 347.192047,97.732658 
	C373.548828,112.926666 399.816040,128.275940 426.152039,143.506165 
	C436.605804,149.551651 447.163147,155.419281 457.718719,161.286285 
	C459.582764,162.322342 461.618805,163.464630 463.665863,163.674133 
	C468.842072,164.203918 470.156830,166.694244 470.126129,171.796692 
	C469.894928,210.272629 469.999939,248.750580 469.999939,287.227905 
	C469.999939,289.199249 469.999969,291.170593 469.999969,293.570892 
	C448.547150,293.570892 427.556458,293.570892 405.969971,293.570892 
	C406.608215,292.470184 406.842804,291.654572 407.381500,291.196533 
	C422.094147,278.686340 423.437500,260.379395 413.281433,244.855133 
z"/>
<path fill="#10A7E5" opacity="1.000000" stroke="none" 
	d="
M363.996582,229.999435 
	C375.192413,236.362305 386.012085,242.673294 396.848450,248.955505 
	C402.873566,252.448502 406.563171,261.847778 404.969940,269.774841 
	C403.659241,276.296021 396.751251,282.546692 390.258728,284.073853 
	C380.924011,286.269531 374.078339,281.030914 366.864685,276.920074 
	C352.455902,268.708893 338.160675,260.298431 323.819061,251.969391 
	C302.723389,239.717957 281.667206,227.397156 260.460754,215.340668 
	C258.713409,214.347260 255.445328,214.265594 253.728653,215.243454 
	C223.654663,232.374283 193.710007,249.732239 163.743317,267.051331 
	C155.152100,272.016571 146.614334,277.075226 137.990341,281.982544 
	C127.336021,288.045166 114.226616,282.748993 109.999672,272.296967 
	C106.788437,264.356506 110.334053,252.923248 117.763359,248.623840 
	C138.043930,236.887268 158.204025,224.942520 178.486282,213.208893 
	C197.079681,202.452255 215.731430,191.794739 234.440689,181.241058 
	C240.343597,177.911270 246.477921,174.981323 252.575455,172.010284 
	C257.348755,169.684540 261.950256,171.329056 266.065491,173.635284 
	C282.508606,182.850296 298.828705,192.285416 315.165863,201.688553 
	C327.428833,208.746719 339.653259,215.871918 351.884247,222.985535 
	C355.816040,225.272308 359.713989,227.617233 363.996582,229.999435 
z"/>
<path fill="#00467C" opacity="1.000000" stroke="none" 
	d="
M316.057526,139.827835 
	C310.401855,150.085617 298.477722,153.061157 288.572815,147.329956 
	C263.662842,132.916443 238.662888,118.658531 213.710587,104.318062 
	C200.527969,96.741798 187.271896,89.284401 174.275681,81.399658 
	C171.381989,79.644058 169.278549,79.598907 166.658783,81.111908 
	C150.755569,90.296486 134.843536,99.465782 118.938515,108.647247 
	C104.332771,117.078690 89.733208,125.520844 75.128860,133.954742 
	C67.541054,138.336639 59.869995,142.580795 52.378235,147.120972 
	C42.721615,152.973129 30.333456,150.299728 24.478598,140.875534 
	C19.080467,132.186508 21.913607,119.926476 31.179384,114.384720 
	C47.361691,104.706268 63.788700,95.437485 80.093529,85.963219 
	C100.394814,74.166733 120.653023,62.295925 140.979279,50.542702 
	C147.706406,46.652882 154.587952,43.030220 161.396530,39.281113 
	C168.409027,35.419724 175.292145,36.680557 181.748810,40.382195 
	C207.429214,55.104923 233.010864,69.999969 258.619781,84.847267 
	C275.336792,94.539291 292.047363,104.242516 308.742004,113.973038 
	C317.601501,119.136810 320.628357,129.112045 316.057526,139.827835 
z"/>
<path fill="#10A7E5" opacity="1.000000" stroke="none" 
	d="
M135.000000,443.000000 
	C225.464722,443.000000 315.429443,443.000000 405.696655,443.000000 
	C405.696655,454.373901 405.696655,465.430695 405.696655,476.745178 
	C306.650787,476.745178 207.716949,476.745178 108.391724,476.745178 
	C108.391724,465.810028 108.391724,454.750580 108.391724,443.000000 
	C116.981262,443.000000 125.740631,443.000000 135.000000,443.000000 
z"/>
<path fill="#00467C" opacity="1.000000" stroke="none" 
	d="
M485.727844,116.250053 
	C493.515961,124.140778 494.371460,136.110123 487.404480,143.980606 
	C481.315155,150.859604 469.591858,151.882889 461.378448,147.019089 
	C440.324921,134.551682 418.979187,122.578247 397.771362,110.370689 
	C380.583801,100.477264 363.448914,90.491814 346.210846,80.687584 
	C344.949463,79.970184 342.666229,79.729866 341.489899,80.391327 
	C332.124542,85.657547 322.963867,91.287712 313.598236,96.553383 
	C312.146637,97.369530 309.544342,97.659691 308.197693,96.903923 
	C296.255402,90.201714 284.476257,83.208809 271.813843,75.814018 
	C277.706726,72.248680 282.912689,69.006081 288.206482,65.913773 
	C302.910950,57.324333 317.668396,48.825600 332.372620,40.235718 
	C342.020081,34.599895 350.592621,37.614643 359.365936,42.782608 
	C380.453125,55.204079 401.785736,67.207932 422.958496,79.485283 
	C443.832642,91.589508 464.631897,103.822868 485.727844,116.250053 
z"/>
<path fill="#00467C" opacity="1.000000" stroke="none" 
	d="
M46.000011,343.000305 
	C38.677834,342.998138 31.853579,342.896698 25.034426,343.039307 
	C22.020842,343.102325 20.914478,342.006897 20.958090,338.979004 
	C21.087482,329.995575 21.047035,321.008728 20.977245,312.023987 
	C20.957474,309.478607 21.505934,307.967041 24.531067,307.977173 
	C54.812176,308.078583 85.093567,308.093079 115.374863,308.147919 
	C115.676018,308.148468 115.976768,308.362122 116.643730,308.615143 
	C116.643730,319.705536 116.643730,330.930267 116.643730,343.000305 
	C93.261131,343.000305 69.880569,343.000305 46.000011,343.000305 
z"/>
<path fill="#00467C" opacity="1.000000" stroke="none" 
	d="
M450.000000,343.000305 
	C432.232269,343.000305 414.964539,343.000305 397.344055,343.000305 
	C397.344055,331.269592 397.344055,320.045105 397.344055,308.315033 
	C398.950470,308.209686 400.545807,308.014862 402.141235,308.013824 
	C430.594727,307.995331 459.048889,308.093964 487.501099,307.902740 
	C491.940155,307.872894 493.263947,309.179108 493.094696,313.554199 
	C492.773376,321.861542 492.862732,330.193390 493.063599,338.508240 
	C493.148926,342.039307 491.869873,343.099670 488.437317,343.058319 
	C475.793121,342.905945 463.146027,342.999329 450.000000,343.000305 
z"/>
</svg>